<?xml version="1.0" standalone="no"?>
<!DOCTYPE svg PUBLIC "-//W3C//DTD SVG 20010904//EN"
 "http://www.w3.org/TR/2001/REC-SVG-20010904/DTD/svg10.dtd">
<svg version="1.0" xmlns="http://www.w3.org/2000/svg"
 width="512.000000pt" height="512.000000pt" viewBox="0 0 512.000000 512.000000"
 preserveAspectRatio="xMidYMid meet">

<g transform="translate(0.000000,512.000000) scale(0.100000,-0.100000)"
fill="#000000" stroke="none">
<path d="M95 4545 c-67 -67 -67 -164 0 -231 l1885 -1885 -1885 -1885 c-67 -67 -67 -164 0 -231 67 -67 164 -67 231 0 l1885 1885 1885 -1885 c67 -67 164 -67 231 0 67 67 67 164 0 231 l-1885 1885 1885 1885 c67 67 67 164 0 231 -67 67 -164 67 -231 0 l-1885 -1885 -1885 1885 c-67 67 -164 67 -231 0z"/>
</g>
</svg>
