<svg xmlns="http://www.w3.org/2000/svg" width="512" height="512" fill-rule="evenodd" clip-rule="evenodd" image-rendering="optimizeQuality" shape-rendering="geometricPrecision" text-rendering="geometricPrecision" viewBox="0 0 512 512" id="appointment">
  <path fill="#666" fill-rule="nonzero" d="M506 510.42l-500 0c-3.31,0 -6,-2.68 -6,-6l0 -337.66c0,-3.31 2.69,-6 6,-6l500 0c3.31,0 6,2.69 6,6l0 337.66c0,3.32 -2.69,6 -6,6zm-494 -12l488 0 0 -325.66 -488 0 0 325.66z"></path>
  <path fill="#666" fill-rule="nonzero" d="M71.77 54.64c3.31,0 6,2.69 6,6 0,3.31 -2.69,6 -6,6l-59.77 0 0 94.12 488 0 0 -94.12 -59.76 0c-3.32,0 -6,-2.69 -6,-6 0,-3.31 2.68,-6 6,-6l65.76 0c3.31,0 6,2.69 6,6l0 106.12c0,3.31 -2.69,6 -6,6l-500 0c-3.31,0 -6,-2.69 -6,-6l0 -106.12c0,-3.31 2.69,-6 6,-6l65.77 0zm319.95 0c3.31,0 6,2.69 6,6 0,3.31 -2.69,6 -6,6l-111.46 0c-3.31,0 -6,-2.69 -6,-6 0,-3.31 2.69,-6 6,-6l111.46 0zm-159.98 0c3.31,0 6,2.69 6,6 0,3.31 -2.69,6 -6,6l-111.45 0c-3.32,0 -6.01,-2.69 -6.01,-6 0,-3.31 2.69,-6 6.01,-6l111.45 0z"></path>
  <path fill="#ffb300" fill-rule="nonzero" d="M277.36 110.8c-5.49 5.49-13.05 8.9-21.36 8.9-8.13 0-15.54-3.26-21-8.54-.13-.11-.26-.22-.38-.35-5.48-5.48-8.88-13.05-8.88-21.37l0-57.6c0-8.3 3.4-15.85 8.87-21.34l.01-.01.02-.02.01-.01c5.49-5.48 13.05-8.88 21.35-8.88 8.3 0 15.85 3.4 21.34 8.87l.01.01.01.01.02.02c5.48 5.49 8.88 13.05 8.88 21.35l0 57.6c0 8.32-3.4 15.89-8.88 21.37l-.02-.01zM117.4 110.81c-5.48 5.49-13.05 8.89-21.37 8.89-8.13 0-15.55-3.26-21.01-8.54-.13-.11-.25-.22-.37-.35-5.48-5.48-8.88-13.05-8.88-21.37l0-57.6c0-8.3 3.4-15.85 8.87-21.34l.01-.01.01-.02.01-.01c5.49-5.48 13.05-8.88 21.36-8.88 8.32 0 15.89 3.4 21.37 8.88l-.01.01c5.49 5.5 8.9 13.06 8.9 21.37l0 57.6c0 8.32-3.41 15.89-8.89 21.37zM437.34 110.8c-5.49 5.49-13.06 8.9-21.36 8.9-8.33 0-15.9-3.4-21.38-8.89-5.48-5.48-8.88-13.05-8.88-21.37l0-57.6c0-8.13 3.26-15.55 8.54-21.01.11-.12.22-.25.34-.37 5.48-5.48 13.05-8.88 21.38-8.88 8.29 0 15.85 3.4 21.34 8.87l.01.01.01.01.01.02c5.48 5.49 8.89 13.05 8.89 21.35l0 57.6c0 8.32-3.41 15.89-8.89 21.37l-.01-.01zM250 335.59l0-68.97c0-3.32 2.69-6 6-6 3.31 0 6 2.68 6 6l0 62.97 94.22 0c3.31 0 6 2.69 6 6 0 3.32-2.69 6-6 6l-100.22 0c-3.31 0-6-2.68-6-6zm101.36 95.36c24.4-24.4 39.5-58.12 39.5-95.36 0-37.24-15.1-70.95-39.5-95.36-24.41-24.4-58.12-39.49-95.36-39.49-37.24 0-70.95 15.09-95.36 39.49-24.4 24.41-39.5 58.12-39.5 95.36 0 37.24 15.1 70.96 39.5 95.36 24.41 24.4 58.12 39.5 95.36 39.5 37.24 0 70.95-15.1 95.36-39.5z"></path>
</svg>
